<svg xmlns="http://www.w3.org/2000/svg" style="display: none;">
<symbol id="note" viewBox="0 0 241.061 241.061"><title>note</title><path d="M198.602,70.402l-78.063,68.789l-78.08-68.79c-3.109-2.739-7.848-2.438-10.586,0.669c-2.737,3.108-2.439,7.847,0.67,10.586 l83.039,73.159c1.417,1.248,3.188,1.872,4.958,1.872s3.542-0.624,4.959-1.873l83.022-73.159c3.107-2.738,3.406-7.478,0.668-10.586 C206.449,67.964,201.711,67.664,198.602,70.402z"/><path d="M218.561,38.529H22.5c-12.406,0-22.5,10.093-22.5,22.5v119.002c0,12.407,10.094,22.5,22.5,22.5h196.061 c12.406,0,22.5-10.093,22.5-22.5V61.029C241.061,48.623,230.967,38.529,218.561,38.529z M226.061,180.031 c0,4.135-3.364,7.5-7.5,7.5H22.5c-4.136,0-7.5-3.365-7.5-7.5V61.029c0-4.135,3.364-7.5,7.5-7.5h196.061c4.136,0,7.5,3.365,7.5,7.5 V180.031z"/></symbol>
<symbol id="speedometer" viewBox="0 0 512 512"><title>speedometer</title><path d="M435.143,129.356c-6.796-6.795-17.463-7.797-25.407-2.384c-29.926,20.398-180.03,122.969-196.162,139.1 c-23.394,23.395-23.394,61.459,0,84.854c11.697,11.696,27.063,17.545,42.427,17.545c15.364,0,30.729-5.849,42.427-17.545 c16.131-16.132,118.701-166.236,139.1-196.162C442.939,146.821,441.938,136.153,435.143,129.356z M270.142,322.641 c-7.797,7.799-20.486,7.799-28.283,0c-7.798-7.797-7.799-20.482-0.004-28.28c6.268-6.194,48.885-36.588,101.319-73.035 C306.728,273.76,276.334,316.375,270.142,322.641z"/><path d="M92.231,401.523l-24.69,12.044C49.475,381.325,40,345.338,40,308.499c0-26.991,4.977-52.842,14.06-76.683l28.291,13.57 c2.79,1.338,5.735,1.972,8.636,1.972c7.453,0,14.608-4.185,18.047-11.355c4.776-9.959,0.576-21.906-9.384-26.683l-27.932-13.398 c34.717-56.62,94.784-96.095,164.283-102.505v30.081c0,11.046,8.954,20,20,20c11.046,0,20-8.954,20-20V93.402 c23.828,2.169,46.884,8.237,68.771,18.117c10.065,4.545,21.912,0.066,26.457-9.999c4.545-10.068,0.068-21.913-10-26.458 C328.063,60.091,292.659,52.499,256,52.499c-68.38,0-132.667,26.628-181.02,74.98C26.629,175.832,0,240.119,0,308.499 c0,50.53,14.998,99.674,43.373,142.115c3.822,5.715,10.141,8.886,16.639,8.886c2.954,0,5.946-0.655,8.757-2.026l41-20 c9.928-4.843,14.05-16.816,9.207-26.744C114.133,400.803,102.159,396.682,92.231,401.523z"/><path d="M489.436,203.271c-4.544-10.067-16.387-14.547-26.458-10c-10.067,4.545-14.544,16.39-9.999,26.457 C465.601,247.686,472,277.553,472,308.499c0,36.894-9.506,72.939-27.625,105.218l-25.777-12.275 c-9.971-4.748-21.906-0.515-26.656,9.459c-4.749,9.972-0.514,21.907,9.459,26.656l42,20c2.763,1.315,5.692,1.944,8.588,1.944 c6.5,0,12.82-3.175,16.637-8.886C497.002,408.173,512,359.029,512,308.499C512,271.84,504.408,236.436,489.436,203.271z"/></symbol>
<symbol id="social" viewBox="0 0 482.9 482.9"><title>social</title><path d="M239.7,260.2c0.5,0,1,0,1.6,0c0.2,0,0.4,0,0.6,0c0.3,0,0.7,0,1,0c29.3-0.5,53-10.8,70.5-30.5 c38.5-43.4,32.1-117.8,31.4-124.9c-2.5-53.3-27.7-78.8-48.5-90.7C280.8,5.2,262.7,0.4,242.5,0h-0.7c-0.1,0-0.3,0-0.4,0h-0.6 c-11.1,0-32.9,1.8-53.8,13.7c-21,11.9-46.6,37.4-49.1,91.1c-0.7,7.1-7.1,81.5,31.4,124.9C186.7,249.4,210.4,259.7,239.7,260.2z M164.6,107.3c0-0.3,0.1-0.6,0.1-0.8c3.3-71.7,54.2-79.4,76-79.4h0.4c0.2,0,0.5,0,0.8,0c27,0.6,72.9,11.6,76,79.4 c0,0.3,0,0.6,0.1,0.8c0.1,0.7,7.1,68.7-24.7,104.5c-12.6,14.2-29.4,21.2-51.5,21.4c-0.2,0-0.3,0-0.5,0l0,0c-0.2,0-0.3,0-0.5,0 c-22-0.2-38.9-7.2-51.4-21.4C157.7,176.2,164.5,107.9,164.6,107.3z"/><path d="M446.8,383.6c0-0.1,0-0.2,0-0.3c0-0.8-0.1-1.6-0.1-2.5c-0.6-19.8-1.9-66.1-45.3-80.9c-0.3-0.1-0.7-0.2-1-0.3 c-45.1-11.5-82.6-37.5-83-37.8c-6.1-4.3-14.5-2.8-18.8,3.3c-4.3,6.1-2.8,14.5,3.3,18.8c1.7,1.2,41.5,28.9,91.3,41.7 c23.3,8.3,25.9,33.2,26.6,56c0,0.9,0,1.7,0.1,2.5c0.1,9-0.5,22.9-2.1,30.9c-16.2,9.2-79.7,41-176.3,41 c-96.2,0-160.1-31.9-176.4-41.1c-1.6-8-2.3-21.9-2.1-30.9c0-0.8,0.1-1.6,0.1-2.5c0.7-22.8,3.3-47.7,26.6-56 c49.8-12.8,89.6-40.6,91.3-41.7c6.1-4.3,7.6-12.7,3.3-18.8c-4.3-6.1-12.7-7.6-18.8-3.3c-0.4,0.3-37.7,26.3-83,37.8 c-0.4,0.1-0.7,0.2-1,0.3c-43.4,14.9-44.7,61.2-45.3,80.9c0,0.9,0,1.7-0.1,2.5c0,0.1,0,0.2,0,0.3c-0.1,5.2-0.2,31.9,5.1,45.3 c1,2.6,2.8,4.8,5.2,6.3c3,2,74.9,47.8,195.2,47.8s192.2-45.9,195.2-47.8c2.3-1.5,4.2-3.7,5.2-6.3 C447,415.5,446.9,388.8,446.8,383.6z"/></symbol>
<symbol id="multimedia" viewBox="0 0 512 512"><title>multimedia</title><g> <g> <path d="M405.344,133.521l-80.875-76.118H0v341.336l229.633-0.016l111.711,55.875l-0.016-55.859h64.016V133.521z M330.656,92.543 l43.625,41.047h-43.625V92.543z M384,377.41h-64.016L320,420.066l-85.328-42.688L21.336,377.41V78.738h288.008v76.188H384V377.41z "/> </g> </g><g> <g> <path d="M512,101.371c0-23.57-19.094-42.672-42.656-42.672c-23.578,0-42.688,19.102-42.688,42.672v277.32h14.828l-14.828,46.234 l42.688,28.453L512,424.926l-14.812-46.234H512V101.371z M469.344,427.723l-17.438-11.625l11.984-37.406h10.891l11.985,37.406 L469.344,427.723z M490.656,357.363H448V101.371c0-11.766,9.562-21.336,21.344-21.336c11.75,0,21.312,9.57,21.312,21.336V357.363z "/> </g> </g><g> <g> <path d="M330.656,281.41H74.664c-5.891,0-10.664,4.766-10.664,10.656c0,5.906,4.773,10.672,10.664,10.672h255.992 c5.906,0,10.688-4.766,10.688-10.672C341.344,286.176,336.562,281.41,330.656,281.41z"/> </g> </g><g> <g> <path d="M330.656,217.402H74.664c-5.891,0-10.664,4.773-10.664,10.672c0,5.891,4.773,10.664,10.664,10.664h255.992 c5.906,0,10.688-4.773,10.688-10.664C341.344,222.176,336.562,217.402,330.656,217.402z"/> </g> </g><g> <g> <path d="M213.336,153.402H74.664c-5.891,0-10.664,4.773-10.664,10.672c0,5.891,4.773,10.664,10.664,10.664h138.672 c5.891,0,10.664-4.773,10.664-10.664C224,158.177,219.227,153.402,213.336,153.402z"/> </g> </g></symbol>
<symbol id="layers" viewBox="0 0 54.953 54.953"><title>layers</title><path d="M45.297,21.946l9.656-5.517L27.477,0.825L0,16.429l9.656,5.517L0,27.429l9.656,5.517L0,38.429l27.477,15.698l27.476-15.698 l-9.656-5.483l9.656-5.517L45.297,21.946z M27.477,3.125l23.435,13.309l-23.435,13.39L4.041,16.434L27.477,3.125z M11.675,23.099 l15.802,9.028l15.802-9.028l7.633,4.335l-23.435,13.39L4.041,27.434L11.675,23.099z M50.912,38.434l-23.435,13.39L4.041,38.434 l7.634-4.335l15.802,9.028l15.802-9.028L50.912,38.434z"/></symbol>
<symbol id="buildings" viewBox="0 0 247.789 247.789"><title>buildings</title><path d="M223.779,122.895c-3.313,0-6,2.687-6,6v106.895h-64.384v-67.102c0-3.313-2.687-6-6-6h-47c-3.313,0-6,2.687-6,6v53.207 c0,3.313,2.687,6,6,6s6-2.687,6-6v-47.207h35v61.102H30.01V88.929l93.884-75.239l96.132,77.04c2.586,2.073,6.362,1.655,8.434-0.93 c2.072-2.586,1.656-6.361-0.93-8.434L127.646,1.318c-2.192-1.758-5.312-1.758-7.504,0L20.258,81.366 c-1.421,1.139-2.248,2.86-2.248,4.682v155.741c0,3.313,2.686,6,6,6h199.769c3.314,0,6-2.687,6-6V128.895 C229.779,125.581,227.093,122.895,223.779,122.895z"/></symbol>
</svg>