<svg xmlns="http://www.w3.org/2000/svg" style="display: none;"><symbol id="social-media" viewBox="0 0 55.11 55.11"><title>social-media</title><path d="M18.549,29.909c-2.757,0-5,2.691-5,6s2.243,6,5,6s5-2.691,5-6S21.306,29.909,18.549,29.909z M18.549,39.909 c-1.654,0-3-1.794-3-4s1.346-4,3-4s3,1.794,3,4S20.204,39.909,18.549,39.909z"/><path d="M37.549,29.909c-2.757,0-5,2.691-5,6s2.243,6,5,6s5-2.691,5-6S40.306,29.909,37.549,29.909z M37.549,39.909 c-1.654,0-3-1.794-3-4s1.346-4,3-4s3,1.794,3,4S39.204,39.909,37.549,39.909z"/><path d="M39.075,24.909c-0.049,0-0.1,0-0.149,0.001c-0.926,0.016-1.853,0.054-2.78,0.091c-0.844,0.034-1.688,0.068-2.531,0.085 l-1.465,0.031c-2.543,0.053-5.178,0.107-7.751,0.097c-1.174-0.005-2.349-0.049-3.522-0.093c-1.598-0.06-3.248-0.124-4.886-0.083 c-2.273,0.055-4.185,0.781-5.685,2.159h0c-2.491,2.289-3.521,5.325-3.148,9.282c0.542,5.743,2.86,8.68,8.002,10.135 c4.323,1.223,8.665,1.333,12.322,1.281l1.218,0.006c0.411,0.003,0.822,0.007,1.233,0.007c0.507,0,1.014-0.005,1.521-0.021 c3.595-0.115,6.746-0.652,9.632-1.644c3.169-1.088,5.279-3.166,6.269-6.175c0.756-2.3,0.978-4.479,0.679-6.662 C47.547,29.856,44.45,24.909,39.075,24.909z M45.456,39.444c-0.795,2.417-2.437,4.022-5.019,4.908 c-2.695,0.925-5.654,1.428-9.046,1.536c-0.891,0.028-1.782,0.02-2.673,0.014l-1.249-0.007c-3.525,0.05-7.688-0.052-11.763-1.206 c-4.317-1.221-6.094-3.498-6.556-8.397C8.84,33,9.661,30.507,11.659,28.67c1.133-1.04,2.606-1.589,4.38-1.633 c1.576-0.036,3.196,0.023,4.762,0.082c1.196,0.045,2.393,0.09,3.589,0.095c2.608,0.012,5.247-0.044,7.802-0.098l1.463-0.03 c0.857-0.018,1.714-0.053,2.571-0.087c0.911-0.037,1.822-0.074,2.733-0.089c0.036-0.001,0.072-0.001,0.108-0.001 c4.13,0,6.607,4.022,6.984,6.771C46.31,35.554,46.114,37.44,45.456,39.444z"/><path d="M51.866,18.56c-0.595-0.819-0.867-1.301-0.782-2.176c0.177-1.843-0.075-3.698-0.319-5.491l-0.016-0.118 c-0.326-2.404-0.954-4.698-1.867-6.819l-0.325-0.754L47.08,3.516c-2.051,0.431-4.173,0.877-6.107,1.994 c-1.284,0.742-2.562,1.533-3.797,2.297c-0.827,0.512-1.654,1.024-2.486,1.523c-0.045,0.027-0.135,0.049-0.16,0.049c0,0,0,0,0,0 C30.057,8.598,25.412,8.59,20.72,9.356c-0.058,0.01-0.247-0.022-0.397-0.111c-0.516-0.309-1.019-0.641-1.521-0.972 c-0.583-0.385-1.167-0.769-1.767-1.12c-2.862-1.68-6.024-3.301-9.753-3.777L6.552,3.282L6.163,4.125 C6.09,4.279,6.028,4.412,5.977,4.55c-1.07,2.884-1.715,5.908-1.924,9.085c-0.073,1.101-0.148,2.24,0.014,3.377 c0.054,0.377,0.009,0.453-0.138,0.637c-1.347,1.679-2.31,3.435-2.945,5.368c-1.067,3.246-1.26,6.845-0.609,11.324 c0.54,3.747,1.459,6.481,2.977,8.863c3.193,5.008,8.122,7.829,14.651,8.385c3.263,0.278,6.574,0.32,9.82,0.32 c0.698,0,1.393-0.002,2.084-0.004c0.911-0.003,1.823-0.005,2.732-0.003c4.18,0.002,7.514-0.542,10.545-1.729 c5.396-2.111,8.984-6.043,10.663-11.688c0.936-3.145,1.355-6.489,1.245-9.941C54.97,24.698,53.884,21.339,51.866,18.56z M51.931,37.915c-1.516,5.093-4.615,8.494-9.475,10.396c-2.79,1.093-5.87,1.61-9.812,1.591c-0.913-0.002-1.827,0-2.741,0.003 c-3.861,0.011-7.853,0.022-11.729-0.309c-5.958-0.507-10.255-2.95-13.135-7.467c-1.359-2.131-2.187-4.621-2.685-8.075 c-0.614-4.22-0.45-7.431,0.53-10.413c0.559-1.701,1.411-3.252,2.605-4.742c0.523-0.652,0.684-1.281,0.557-2.17 c-0.133-0.931-0.064-1.964,0.008-3.061c0.184-2.807,0.761-5.565,1.714-8.197c3.065,0.542,5.773,1.949,8.253,3.405 c0.57,0.334,1.124,0.7,1.677,1.064c0.527,0.348,1.055,0.695,1.597,1.019c0.54,0.322,1.192,0.46,1.747,0.368 c4.468-0.729,8.89-0.723,13.146,0.021c0.49,0.083,1.075-0.033,1.528-0.304c0.841-0.505,1.675-1.021,2.51-1.538 c1.242-0.769,2.483-1.537,3.746-2.266c1.619-0.935,3.446-1.332,5.381-1.74c0.675,1.74,1.149,3.601,1.413,5.541l0.016,0.118 c0.228,1.681,0.464,3.419,0.309,5.03c-0.154,1.594,0.459,2.586,1.155,3.544c1.803,2.483,2.734,5.386,2.846,8.872 C53.197,31.845,52.806,34.977,51.931,37.915z"/></symbol><symbol id="instagram" viewBox="0 0 409.602 409.602"><title>instagram</title><g> <path d="M349.617,59.988C310.938,21.305,259.504,0,204.801,0S98.672,21.305,59.988,59.988C21.305,98.672,0,150.098,0,204.801 c0,54.711,21.305,106.14,59.988,144.82c38.68,38.68,90.11,59.981,144.813,59.981c54.707,0,106.137-21.301,144.816-59.981 c38.68-38.68,59.985-90.109,59.985-144.82C409.602,150.098,388.297,98.668,349.617,59.988L349.617,59.988z M340.566,340.57 c-36.261,36.262-84.476,56.231-135.765,56.231c-51.285,0-99.5-19.969-135.762-56.231c-36.266-36.261-56.238-84.48-56.238-135.769 c0-51.281,19.972-99.496,56.238-135.762s84.481-56.238,135.762-56.238c51.285,0,99.5,19.972,135.765,56.238 c36.262,36.262,56.235,84.477,56.235,135.762C396.801,256.094,376.828,304.309,340.566,340.57L340.566,340.57z M340.566,340.57"/> <path d="M344.031,91.977c-2.226-2.747-6.258-3.168-9.004-0.938c-2.746,2.227-3.164,6.258-0.937,9 c23.93,29.496,37.109,66.699,37.109,104.762c0,44.453-17.308,86.242-48.734,117.668c-31.426,31.426-73.215,48.73-117.664,48.73 c-41.008,0-80.406-15.043-110.93-42.363c-2.637-2.359-6.68-2.133-9.039,0.5c-2.355,2.633-2.133,6.68,0.5,9.035 C118.211,367.797,160.637,384,204.801,384c47.867,0,92.871-18.637,126.715-52.48C365.359,297.676,384,252.672,384,204.801 C384,163.812,369.805,123.746,344.031,91.977L344.031,91.977z M344.031,91.977"/> <path d="M38.398,204.801c0-91.754,74.649-166.403,166.403-166.403c41.008,0,80.402,15.047,110.929,42.368 c2.633,2.359,6.68,2.132,9.036-0.5c2.359-2.633,2.132-6.68-0.5-9.036c-32.875-29.425-75.305-45.628-119.465-45.628 c-47.863,0-92.863,18.64-126.711,52.488c-33.848,33.847-52.488,78.847-52.488,126.711c0,40.992,14.195,81.062,39.968,112.828 c1.266,1.562,3.11,2.371,4.973,2.371c1.418,0,2.844-0.469,4.031-1.434c2.742-2.226,3.164-6.257,0.938-9 C51.578,280.07,38.398,242.863,38.398,204.801L38.398,204.801z M38.398,204.801"/> </g><g> <path d="M258.59,102.125h-107.18c-27.176,0-49.285,22.11-49.285,49.286v107.179c0,27.177,22.109,49.286,49.285,49.286h107.18 c27.176,0,49.284-22.109,49.284-49.286V151.411C307.874,124.235,285.766,102.125,258.59,102.125z M294.898,258.589 c0,20.02-16.288,36.309-36.308,36.309h-107.18c-20.019,0-36.305-16.289-36.305-36.309V151.411 c0-20.019,16.287-36.305,36.305-36.305h107.18c20.02,0,36.308,16.287,36.308,36.305V258.589z"/> <path d="M262.503,139.728c-4.358,0-7.904,3.545-7.904,7.901c0,4.356,3.546,7.9,7.904,7.9c4.356,0,7.9-3.544,7.9-7.9 C270.403,143.273,266.859,139.728,262.503,139.728z"/> <path d="M204.998,154.57c-27.806,0-50.428,22.622-50.428,50.428c0,27.808,22.622,50.432,50.428,50.432 c27.808,0,50.432-22.624,50.432-50.432C255.43,177.192,232.806,154.57,204.998,154.57z M204.998,242.454 c-20.652,0-37.453-16.803-37.453-37.456c0-20.648,16.801-37.446,37.453-37.446c20.65,0,37.449,16.798,37.449,37.446 C242.448,225.651,225.648,242.454,204.998,242.454z"/> </g></symbol><symbol id="twitter" viewBox="0 0 512 512"><title>twitter</title><path d="M437.022,74.984C388.67,26.63,324.381,0,256,0C187.624,0,123.338,26.63,74.984,74.984S0,187.624,0,256 c0,68.388,26.63,132.678,74.984,181.028C123.335,485.375,187.621,512,256,512c68.385,0,132.673-26.625,181.021-74.972 C485.372,388.679,512,324.389,512,256C512,187.623,485.372,123.336,437.022,74.984z M425.708,425.714 C380.381,471.039,320.111,496,256,496c-64.106,0-124.374-24.961-169.703-70.286C40.965,380.386,16,320.113,16,256 c0-64.102,24.965-124.37,70.297-169.703C131.63,40.965,191.898,16,256,16c64.108,0,124.378,24.965,169.708,70.297 C471.037,131.628,496,191.896,496,256C496,320.115,471.037,380.387,425.708,425.714z"/><path d="M430.038,114.969c-2.783-3.432-7.821-3.956-11.253-1.172c-3.431,2.784-3.956,7.822-1.172,11.252 C447.526,161.919,464,208.426,464,256c0,55.567-21.635,107.803-60.919,147.085C363.797,442.367,311.563,464,256,464 c-51.26,0-100.505-18.807-138.663-52.956c-3.292-2.946-8.35-2.666-11.296,0.626s-2.666,8.35,0.626,11.296 C147.763,459.745,200.797,480,256,480c59.837,0,116.089-23.297,158.394-65.601C456.701,372.095,480,315.84,480,256 C480,204.767,462.256,154.681,430.038,114.969z"/><path d="M48,256c0-114.691,93.309-208,208-208c51.26,0,100.504,18.808,138.662,52.959c3.293,2.948,8.35,2.666,11.296-0.625 c2.947-3.292,2.667-8.35-0.625-11.296C364.237,52.256,311.203,32,256,32c-59.829,0-116.08,23.301-158.389,65.611 C55.301,139.921,32,196.171,32,256c0,51.239,17.744,101.328,49.963,141.038c1.581,1.949,3.889,2.96,6.217,2.96 c1.771,0,3.553-0.585,5.036-1.788c3.431-2.784,3.956-7.822,1.172-11.253C64.474,350.088,48,303.58,48,256z"/><path d="M398.655,194.764c1.975-2.959,1.757-6.867-0.533-9.59c-2.29-2.722-6.102-3.604-9.357-2.167 c-0.204,0.09-0.408,0.18-0.612,0.268c1.881-3.375,3.437-6.949,4.63-10.676c1.014-3.166-0.035-6.628-2.635-8.698 c-2.6-2.071-6.209-2.317-9.067-0.622c-8.072,4.792-16.708,8.314-25.726,10.498c-10.798-9.778-25.002-15.307-39.646-15.307 c-32.47,0-58.887,26.402-58.887,58.855c0,0.928,0.021,1.854,0.063,2.776c-34.859-4.249-67.035-21.913-89.417-49.384 c-1.658-2.035-4.206-3.128-6.826-2.922c-2.617,0.205-4.967,1.68-6.288,3.948c-5.214,8.949-7.97,19.185-7.97,29.602 c0,9.952,2.486,19.542,7.052,28.008c-1.225,0.081-2.435,0.444-3.528,1.088c-2.443,1.438-3.942,4.06-3.942,6.895v0.636 c0,17.624,7.908,33.796,20.616,44.719c-0.275,0.237-0.536,0.495-0.78,0.772c-1.859,2.112-2.473,5.045-1.615,7.725 c5.467,17.082,18.25,30.333,34.264,36.714c-13.001,6.537-27.355,9.933-42.315,9.933c-3.772,0-7.544-0.216-11.211-0.643 c-3.698-0.431-7.206,1.748-8.458,5.255c-1.253,3.507,0.08,7.414,3.214,9.425C164.291,367.657,192.755,376,221.996,376 c57.454,0,93.424-27.125,113.482-49.88c24.968-28.326,39.288-65.827,39.288-102.89c0-0.914-0.007-1.804-0.022-2.676 C384.046,213.282,392.077,204.623,398.655,194.764z M361.931,210.17c-2.198,1.585-3.444,4.176-3.311,6.883 c0.097,1.97,0.145,3.99,0.145,6.177c0,33.221-12.863,66.866-35.29,92.31C305.597,335.822,273.479,360,221.996,360 c-15.75,0-31.25-2.705-45.896-7.938c17.51-3.161,33.891-10.506,48.153-21.695c2.662-2.088,3.723-5.626,2.648-8.835 c-1.075-3.208-4.052-5.394-7.436-5.458c-14.083-0.265-26.831-7.364-34.527-18.535c4.015-0.244,8.006-0.896,11.91-1.951 c3.583-0.967,6.029-4.272,5.91-7.981c-0.119-3.709-2.774-6.849-6.411-7.584c-15.937-3.219-28.377-15.183-32.716-30.254 c4.279,1.13,8.688,1.784,13.119,1.932c3.577,0.122,6.79-2.146,7.883-5.548c1.094-3.402-0.203-7.118-3.175-9.102 c-11.942-7.97-19.071-21.318-19.071-35.707c0-3.646,0.462-7.259,1.363-10.751c26.808,27.682,63.308,44.387,101.994,46.315 c2.526,0.125,4.93-0.936,6.54-2.863c1.609-1.928,2.22-4.5,1.649-6.946c-0.735-3.149-1.108-6.438-1.108-9.775 c0-23.63,19.239-42.855,42.887-42.855c11.804,0,23.217,4.931,31.314,13.527c1.884,2,4.664,2.894,7.358,2.367 c3.031-0.593,6.028-1.312,8.986-2.156c-1.483,1.179-3.052,2.266-4.696,3.25c-3.236,1.938-4.679,5.872-3.463,9.442 c1.216,3.571,4.757,5.809,8.506,5.367c1.303-0.153,2.602-0.329,3.897-0.529C365.78,207.282,363.885,208.76,361.931,210.17z"/></symbol><symbol id="skype" viewBox="0 0 512 512"><title>skype</title><path d="M437.022,74.984C388.67,26.63,324.381,0,256,0C187.624,0,123.338,26.63,74.984,74.984S0,187.624,0,256 c0,68.388,26.63,132.678,74.984,181.028C123.335,485.374,187.621,512,256,512c68.385,0,132.673-26.626,181.021-74.972 C485.372,388.679,512,324.389,512,256C512,187.623,485.372,123.336,437.022,74.984z M425.708,425.714 C380.381,471.039,320.111,496,256,496c-64.106,0-124.374-24.961-169.703-70.286C40.965,380.386,16,320.113,16,256 c0-64.102,24.965-124.37,70.297-169.703C131.63,40.965,191.898,16,256,16c64.108,0,124.378,24.965,169.708,70.297 C471.037,131.628,496,191.896,496,256C496,320.115,471.037,380.387,425.708,425.714z"/><path d="M430.038,114.969c-2.783-3.431-7.821-3.957-11.253-1.172c-3.431,2.784-3.956,7.822-1.172,11.252 C447.526,161.919,464,208.426,464,256c0,55.567-21.635,107.803-60.919,147.085C363.797,442.367,311.563,464,256,464 c-51.26,0-100.505-18.807-138.663-52.956c-3.292-2.946-8.35-2.666-11.296,0.626c-2.946,3.292-2.666,8.35,0.626,11.296 C147.763,459.745,200.797,480,256,480c59.837,0,116.089-23.297,158.394-65.601C456.701,372.095,480,315.84,480,256 C480,204.767,462.256,154.681,430.038,114.969z"/><path d="M48,256c0-114.691,93.309-208,208-208c51.26,0,100.504,18.808,138.662,52.959c3.293,2.948,8.351,2.666,11.296-0.625 c2.947-3.292,2.667-8.35-0.625-11.296C364.237,52.256,311.203,32,256,32c-59.829,0-116.08,23.301-158.389,65.611 C55.301,139.921,32,196.171,32,256c0,51.239,17.744,101.328,49.963,141.038c1.581,1.949,3.889,2.96,6.217,2.96 c1.771,0,3.553-0.585,5.036-1.788c3.431-2.784,3.956-7.822,1.172-11.253C64.474,350.088,48,303.58,48,256z"/><path d="M277.821,303.575c-5.267,3.599-12.561,5.424-21.681,5.424c-6.514,0-11.861-0.898-15.45-2.591 c-3.502-1.66-6.176-3.69-7.964-6.057c-2.244-2.947-4.432-6.846-6.476-11.529c-2.567-6.008-5.86-10.75-9.816-14.118 c-4.542-3.833-10.286-5.859-16.611-5.859c-7.445,0-14.033,2.498-19.049,7.219c-5.192,4.879-7.937,11.137-7.937,18.098 c0,9.291,3.276,18.725,9.733,28.032c6.187,8.942,14.325,16.172,24.234,21.513c13.386,7.103,30.308,10.705,50.295,10.705 c16.598,0,31.295-2.611,43.682-7.759c12.929-5.368,22.979-13.04,29.872-22.801c7.017-9.912,10.575-21.221,10.575-33.613 c0-10.349-2.125-19.373-6.315-26.82c-4.131-7.345-9.938-13.486-17.263-18.257c-6.685-4.348-14.817-8.071-24.166-11.064 c-8.663-2.781-18.569-5.378-29.444-7.72c-8.272-1.911-14.181-3.36-17.605-4.318c-3.049-0.836-6.069-2.005-8.976-3.475 c-2.314-1.169-4.043-2.446-5.178-3.844c-0.484-0.586-0.784-1.204-0.784-2.471c0-0.855,0-2.857,4.458-5.772 c4.287-2.819,10.385-4.249,18.125-4.249c10.829,0,15.217,2.111,16.873,3.372c3.559,2.708,6.731,6.676,9.429,11.794 c0.051,0.098,0.105,0.194,0.161,0.29c3.254,5.598,6.224,9.503,9.391,12.33c4.129,3.63,9.673,5.471,16.479,5.471 c7.436,0,14.042-2.771,19.118-8.027c4.948-5.15,7.563-11.41,7.563-18.104c0-6.16-1.683-12.418-5.005-18.61 c-3.183-5.916-8.148-11.541-14.766-16.725c-6.455-5.041-14.535-9.091-24.029-12.042c-9.333-2.884-20.333-4.346-32.694-4.346 c-15.478,0-29.246,2.191-40.912,6.508c-12.37,4.558-22.066,11.34-28.811,20.147c-6.958,9.052-10.485,19.542-10.485,31.181 c0,12.139,3.417,22.581,10.164,31.046c6.336,7.923,14.9,14.217,25.461,18.713c9.608,4.077,21.561,7.657,35.554,10.646 c9.605,2.016,17.38,3.942,23.088,5.718c4.525,1.421,8.168,3.397,10.788,5.836c1.234,1.166,2.497,2.851,2.497,6.517 C283.944,296.652,283.218,299.897,277.821,303.575z M292.391,275.773c-4.419-4.115-10.118-7.287-16.957-9.435 c-6.208-1.932-14.477-3.986-24.547-6.1c-12.971-2.771-23.945-6.042-32.61-9.719c-8.091-3.444-14.559-8.148-19.216-13.971 c-4.424-5.551-6.667-12.638-6.667-21.063c0-8.03,2.413-15.24,7.179-21.442c4.882-6.375,12.166-11.379,21.659-14.877 c9.893-3.661,21.792-5.517,35.369-5.517c10.758,0,20.169,1.222,27.958,3.629c7.628,2.371,13.992,5.522,18.908,9.362 c4.86,3.806,8.403,7.743,10.529,11.694c2.057,3.833,3.1,7.546,3.1,11.038c0,2.587-0.985,4.817-3.087,7.004 c-2.061,2.134-4.474,3.127-7.595,3.127c-2.723,0-4.823-0.528-5.87-1.448c-1.756-1.567-3.805-4.346-6.088-8.258 c-3.777-7.123-8.424-12.813-13.81-16.91c-5.866-4.469-14.555-6.641-26.564-6.641c-10.918,0-19.975,2.315-26.9,6.87 c-7.752,5.07-11.683,11.514-11.683,19.152c0,4.824,1.495,9.082,4.403,12.605c2.525,3.109,6.004,5.797,10.34,7.989 c3.859,1.952,7.885,3.508,11.923,4.615c3.676,1.029,9.673,2.502,18.334,4.502c0.039,0.009,0.078,0.018,0.118,0.026 c10.386,2.235,19.799,4.7,27.985,7.328c7.998,2.56,14.835,5.668,20.321,9.237c5.139,3.347,9.191,7.617,12.046,12.692 c2.827,5.024,4.26,11.409,4.26,18.976c0,9.014-2.568,17.213-7.634,24.368c-0.002,0.003-0.004,0.006-0.006,0.009 c-5.125,7.259-12.843,13.066-22.945,17.261c-10.433,4.336-23.064,6.534-37.544,6.534c-17.345,0-31.744-2.974-42.75-8.814 c-7.619-4.106-13.885-9.66-18.627-16.515c-4.568-6.585-6.885-12.951-6.885-18.92c0-2.537,0.919-4.583,2.898-6.442 c2.055-1.934,4.7-2.875,8.087-2.875c2.57,0,4.628,0.683,6.265,2.064c2,1.703,3.884,4.538,5.473,8.256 c2.58,5.91,5.417,10.916,8.417,14.855c3.34,4.421,8.003,8.07,13.872,10.852c5.805,2.738,13.304,4.127,22.29,4.127 c12.401,0,22.732-2.764,30.7-8.208c8.695-5.926,13.104-13.607,13.104-22.829C299.944,286.624,297.417,280.517,292.391,275.773z"/><path d="M257.451,395.104c7.541,0,15.105-0.616,22.526-1.833c11.423,5.631,24.125,8.597,36.914,8.597 c45.976,0,83.38-37.407,83.38-83.383c0.005-12.039-2.497-23.626-7.439-34.483c1.734-8.807,2.612-17.841,2.612-26.896 c0-76.084-61.901-137.983-137.987-137.983c-6.842,0-13.76,0.516-20.606,1.536c-12.661-7.348-27.021-11.217-41.73-11.217 c-45.982,0-83.392,37.415-83.392,83.403c0,13.789,3.431,27.373,9.948,39.483c-1.473,8.103-2.219,16.423-2.219,24.778 C119.458,333.198,181.361,395.104,257.451,395.104z M195.121,125.44c12.713,0,25.103,3.577,35.829,10.345 c1.67,1.054,3.67,1.455,5.617,1.12c6.926-1.184,13.955-1.784,20.891-1.784c67.264,0,121.987,54.721,121.987,121.983 c0,8.842-0.944,17.656-2.807,26.197c-0.387,1.776-0.158,3.63,0.649,5.259c4.639,9.355,6.989,19.421,6.985,29.92 c0,37.157-30.227,67.386-67.38,67.386c-11.103,0-22.121-2.762-31.861-7.988c-1.17-0.628-2.47-0.951-3.782-0.951 c-0.485,0-0.971,0.044-1.453,0.133c-7.333,1.354-14.851,2.042-22.344,2.042c-67.267,0-121.993-54.729-121.993-121.999 c0-8.301,0.83-16.554,2.467-24.53c0.398-1.938,0.064-3.953-0.938-5.659c-6.057-10.317-9.258-22.099-9.258-34.072 C127.729,155.677,157.961,125.44,195.121,125.44z"/></symbol><symbol id="facebook" viewBox="0 0 512 512"><title>facebook</title><path d="M222.892,388h51.491c4.418,0,8-3.582,8-8V264.093h26.751c4.101,0,7.538-3.101,7.958-7.18l4.51-43.772 c0.232-2.252-0.501-4.498-2.019-6.179c-1.517-1.682-3.675-2.641-5.939-2.641h-31.261v-17.73c0-3.662,1.159-3.936,2.928-3.936 h27.682c4.418,0,8-3.582,8-8v-42.5c0-4.406-3.562-7.982-7.968-8L274.848,124c-26.752,0-41.029,11.77-48.295,21.643 c-10.146,13.787-11.661,29.941-11.661,38.343v20.334h-16.489c-4.418,0-8,3.582-8,8v43.772c0,4.418,3.582,8,8,8h16.489V380 C214.892,384.418,218.473,388,222.892,388z M206.402,248.093v-27.772h16.489c4.418,0,8-3.582,8-8v-28.334 c0-5.185,0.833-18.376,8.547-28.86c7.386-10.037,19.3-15.126,35.376-15.126l30.177,0.122v26.533h-19.682 c-9.421,0-18.928,6.164-18.928,19.936v25.73c0,4.418,3.582,8,8,8h30.395l-2.862,27.772h-27.533c-4.418,0-8,3.582-8,8V372h-35.491 V256.093c0-4.418-3.582-8-8-8H206.402z"/><path d="M437.022,74.984C388.67,26.63,324.381,0,256,0C187.624,0,123.338,26.63,74.984,74.984S0,187.624,0,256 c0,68.388,26.63,132.678,74.984,181.028C123.335,485.375,187.621,512,256,512c68.385,0,132.673-26.625,181.021-74.972 C485.372,388.679,512,324.389,512,256C512,187.622,485.372,123.336,437.022,74.984z M425.708,425.714 C380.381,471.039,320.111,496,256,496c-64.106,0-124.374-24.961-169.703-70.286C40.965,380.386,16,320.113,16,256 c0-64.102,24.965-124.37,70.297-169.702C131.63,40.965,191.898,16,256,16c64.108,0,124.378,24.965,169.708,70.297 C471.037,131.628,496,191.896,496,256C496,320.115,471.037,380.387,425.708,425.714z"/><path d="M430.038,114.969c-2.784-3.432-7.821-3.957-11.253-1.172c-3.431,2.784-3.956,7.822-1.172,11.252 C447.526,161.919,464,208.425,464,256c0,55.567-21.635,107.803-60.919,147.086C363.797,442.367,311.563,464,256,464 c-51.26,0-100.505-18.807-138.663-52.956c-3.292-2.946-8.35-2.666-11.296,0.626c-2.946,3.292-2.666,8.35,0.626,11.296 C147.763,459.745,200.797,480,256,480c59.837,0,116.089-23.297,158.394-65.601C456.701,372.094,480,315.84,480,256 C480,204.766,462.256,154.681,430.038,114.969z"/><path d="M48,256c0-114.691,93.309-208,208-208c51.26,0,100.504,18.808,138.662,52.959c3.293,2.948,8.351,2.666,11.296-0.625 c2.947-3.292,2.667-8.35-0.625-11.296C364.237,52.256,311.203,32,256,32c-59.829,0-116.079,23.301-158.389,65.611 C55.301,139.92,32,196.171,32,256c0,51.24,17.744,101.328,49.963,141.038c1.581,1.949,3.889,2.96,6.217,2.96 c1.771,0,3.553-0.585,5.036-1.788c3.431-2.784,3.956-7.822,1.172-11.253C64.474,350.088,48,303.58,48,256z"/></symbol><symbol id="github" viewBox="0 0 291.32 291.32"><title>github</title><path style="fill:#2B414D;" d="M145.66,0C65.219,0,0,65.219,0,145.66c0,80.45,65.219,145.66,145.66,145.66 s145.66-65.21,145.66-145.66C291.319,65.219,226.1,0,145.66,0z M186.462,256.625c-0.838-11.398-1.775-25.518-1.83-31.235 c-0.364-4.388-0.838-15.549-11.434-22.677c42.068-3.523,62.087-26.774,63.526-57.499c1.202-17.497-5.754-32.883-18.107-45.3 c0.628-13.282-0.401-29.023-1.256-35.941c-9.486-2.731-31.608,8.949-37.79,13.947c-13.037-5.062-44.945-6.837-64.336,0 c-13.747-9.668-29.396-15.64-37.926-13.974c-7.875,17.452-2.813,33.948-1.275,35.914c-10.142,9.268-24.289,20.675-20.447,44.572 c6.163,35.04,30.816,53.94,70.508,58.564c-8.466,1.73-9.896,8.048-10.606,10.788c-26.656,10.997-34.275-6.791-37.644-11.425 c-11.188-13.847-21.23-9.832-21.849-9.614c-0.601,0.218-1.056,1.092-0.992,1.511c0.564,2.986,6.655,6.018,6.955,6.263 c8.257,6.154,11.316,17.27,13.2,20.438c11.844,19.473,39.374,11.398,39.638,11.562c0.018,1.702-0.191,16.032-0.355,27.184 C64.245,245.992,27.311,200.2,27.311,145.66c0-65.365,52.984-118.348,118.348-118.348S264.008,80.295,264.008,145.66 C264.008,196.668,231.69,239.992,186.462,256.625z"/></symbol><symbol id="linkedin" viewBox="0 0 512 512"><title>linkedin</title><path d="M437.022,74.984C388.67,26.63,324.381,0,256,0C187.624,0,123.338,26.63,74.984,74.984S0,187.624,0,256 c0,68.388,26.63,132.678,74.984,181.028C123.335,485.375,187.621,512,256,512c68.385,0,132.673-26.625,181.021-74.972 C485.372,388.679,512,324.389,512,256C512,187.623,485.372,123.336,437.022,74.984z M425.708,425.714 C380.381,471.039,320.111,496,256,496c-64.106,0-124.374-24.961-169.703-70.286C40.965,380.386,16,320.113,16,256 c0-64.102,24.965-124.37,70.297-169.703C131.63,40.965,191.898,16,256,16c64.108,0,124.378,24.965,169.708,70.297 C471.037,131.628,496,191.896,496,256C496,320.115,471.037,380.387,425.708,425.714z"/><path d="M430.038,114.969c-2.783-3.432-7.821-3.956-11.253-1.172c-3.431,2.784-3.956,7.822-1.172,11.252 C447.526,161.919,464,208.426,464,256c0,55.567-21.635,107.803-60.919,147.085C363.797,442.367,311.563,464,256,464 c-51.26,0-100.505-18.807-138.663-52.956c-3.292-2.946-8.35-2.666-11.296,0.626c-2.946,3.292-2.666,8.35,0.626,11.296 C147.763,459.745,200.797,480,256,480c59.837,0,116.089-23.297,158.394-65.601C456.701,372.095,480,315.84,480,256 C480,204.767,462.256,154.681,430.038,114.969z"/><path d="M48,256c0-114.691,93.309-208,208-208c51.26,0,100.504,18.808,138.662,52.959c3.293,2.948,8.351,2.666,11.296-0.625 c2.947-3.292,2.667-8.35-0.625-11.296C364.237,52.256,311.203,32,256,32c-59.829,0-116.08,23.301-158.389,65.611 C55.301,139.921,32,196.171,32,256c0,51.239,17.744,101.328,49.963,141.038c1.581,1.949,3.889,2.96,6.217,2.96 c1.771,0,3.553-0.585,5.036-1.788c3.431-2.784,3.956-7.822,1.172-11.253C64.474,350.088,48,303.58,48,256z"/><path d="M325.685,373.042h49.577c4.418,0,8-3.582,8-8v-85.508c0-24.007-6.204-42.903-18.439-56.162 c-11.438-12.395-27.571-18.947-46.653-18.947c-16.595,0-28.251,5.056-36.677,11.636v-0.138c0-4.418-3.582-8-8-8H223.93 c-2.185,0-4.274,0.894-5.784,2.473c-1.509,1.58-2.307,3.708-2.208,5.891c0.62,13.618-0.002,147.368-0.008,148.718 c-0.01,2.128,0.829,4.173,2.33,5.681c1.501,1.508,3.542,2.356,5.67,2.356h49.562c4.418,0,8-3.582,8-8V281.76 c0-4.336,0.347-7.376,1.053-9.092c1.594-3.953,6.54-13.146,18.02-13.146c4.683,0,17.121,0,17.121,25.734v79.785 C317.685,369.46,321.266,373.042,325.685,373.042z M300.564,243.522c-14.727,0-27.01,8.659-32.835,23.106 c-1.547,3.754-2.237,8.421-2.237,15.131v75.282h-33.526c0.111-25.855,0.418-105.46,0.123-133.119h33.403v13.117 c0,3.544,2.332,6.666,5.731,7.671c3.398,1.005,7.054-0.347,8.982-3.32c6.721-10.367,16.487-20.966,37.964-20.966 c31.199,0,49.093,21.544,49.093,59.108v77.508h-33.577v-71.785c0-12.136-2.428-21.855-7.216-28.887 C320.746,247.964,311.788,243.522,300.564,243.522z"/><path d="M207.747,169.605c-0.41-19.786-15.099-33.605-35.72-33.605C151.151,136,136,150.203,136,169.771 s14.877,33.771,35.375,33.771h0.333c20.883,0,36.041-14.203,36.041-33.771C207.749,169.716,207.748,169.661,207.747,169.605z M171.708,187.542h-0.333c-11.589,0-19.375-7.142-19.375-17.771c0-10.629,8.048-17.771,20.026-17.771 c11.906,0,19.456,6.838,19.722,17.853C191.707,180.437,183.664,187.542,171.708,187.542z"/><path d="M146.919,207.922c-4.418,0-8,3.582-8,8v149.119c0,4.418,3.582,8,8,8h49.591c4.418,0,8-3.582,8-8V215.922 c0-4.418-3.582-8-8-8H146.919z M188.511,357.042h-33.591V223.922h33.591V357.042z"/></symbol></svg>